<svg xmlns="http://www.w3.org/2000/svg" enable-background="new 0 0 1920 1080" viewBox="0 0 1920 1080" id="business-analysis"><g id="Background"><ellipse cx="908.6" cy="1052.6" fill="#2a94f4" opacity=".11" rx="420" ry="25.9"></ellipse><path fill="#2a94f4" d="M588.6 1035.5s-176.4-29.7-191.3-310 168.4-412.1 337.4-354c57.6 19.8 117.9-33.4 42.3-114.3-81.9-87.6 31.1-340.8 448.6-229.2 318.3 85.1 214 308 101.3 470.8-102.4 147.8 121.2 103.8 105.9 363.6-17.5 298.3-844.2 173.1-844.2 173.1z" opacity=".11"></path></g><g id="Objects"><path fill="#f7f7f7" d="M750.5 614H526.4l4.3-258h216.6z"></path><path fill="#606060" d="M514.9 614H998v32.6H514.9zM670.9 737.1h171v19h-171z"></path><path fill="#606060" d="M514.9 1056.6 723 627.2l21.8 10.6-203.1 418.9zM997.9 1056.6 789.8 627.2l-21.7 10.6 203 418.9z"></path><ellipse cx="640.2" cy="484.8" fill="#2a94f4" rx="85.1" ry="78.3"></ellipse><path fill="#cce9ff" d="M640.2 484.8h85.1c0 16.5-5.7 32.6-16.2 45.9-10.5 13.4-25.4 23.3-42.4 28.4l-26.5-74.3z"></path><path fill="#0b4870" d="m640.2 484.8-56.8-58.3c15.6-12.8 35.8-20 56.8-20 46.7 0 85.1 35.3 85.1 78.3v.4l-85.1-.4z"></path><path fill="#f7f7f7" d="M965.2 614H775.9l3.6-134.2h182.9z"></path><path fill="#0b4870" d="M827.3 519.2h20.6V598h-20.6zM862.6 528.6h20.6v69.5h-20.6z"></path><path fill="#ffbe55" d="M897.8 509.2h20.6V598h-20.6z"></path><path fill="#0b4870" d="M809.9 500.5h2.2v98.6h-2.2z"></path><path fill="#0b4870" d="M809.9 598h137.5v1.7H809.9zM544.2 571.1h7.5v7.5h-7.5zM555.9 573.7h28.9v2.4h-28.9zM555.9 586.6h28.9v2.4h-28.9zM555.9 599.6h28.9v2.4h-28.9z"></path><path fill="#2a94f4" d="M544.2 584.1h7.5v7.5h-7.5z"></path><path fill="#cce9ff" d="M544.2 597h7.5v7.5h-7.5z"></path></g><g id="Character"><path fill="#ffbe55" d="m1092.8 225.2-130.6-41c21.5-68.7 93.8-109.3 163.7-91.9 72.9 18.1 117.9 93 99.8 165.9s-93 117.9-165.9 99.8c-15.1-3.7-29.4-10-42.4-18.6l75.4-114.2z"></path><path fill="#ffbe55" d="M1058.8 238.6 981.9 356c-25.4-16.6-44.7-41.1-55.1-69.6-10.3-28.6-11.1-59.7-2.2-88.8l134.2 41z"></path><path fill="#f2f2f2" d="m1142.4 560.3-25.2-18.6L1315 273.5c3.9-5.3 11.4-6.5 16.8-2.5l5.9 4.4c5.3 3.9 6.5 11.4 2.5 16.8l-197.8 268.1z"></path><path fill="#f7f7f7" d="m1155.1 572.4-24.1-20.1 213.5-255.9c4.2-5.1 11.8-5.8 16.9-1.5l5.6 4.7c5.1 4.2 5.8 11.8 1.5 16.9l-213.4 255.9z"></path><ellipse cx="1330.7" cy="278.6" fill="#d3d3d3" rx="4.5" ry="12.4" transform="rotate(-56.585 1330.624 278.642)"></ellipse><ellipse cx="1359.2" cy="303.2" fill="#d3d3d3" rx="4.5" ry="12.4" transform="rotate(-56.585 1359.165 303.22)"></ellipse><path fill="#fcd2b1" d="m1229.3 1006 3.3 20.5c1.3 8.2-3.5 16.1-11.4 18.7l-35.2 11.6h82.1l-9.9-50.8h-28.9z"></path><path fill="#0e538c" d="m1266 1045.2-40.6-2.1s-51.1 7.9-51.4 19h101.3l-9.3-16.9z"></path><path fill="#fcd2b1" d="m1011.3 1006-8.4 25.7c-1.8 5.6-6.3 10-11.9 11.9l-39.9 13.2h82.1l11.6-50.8h-33.5z"></path><path fill="#0e538c" d="m1034.8 1045.2-44.4-2.1s-51.1 7.9-51.4 19h101.3l-5.5-16.9z"></path><path fill="#ffbe55" d="M1218.3 531.9s20 13.3 25.8 64.3c5.8 51-2.3 88 2.3 117.8 4.6 29.8 13.6 300.6 13.6 300.6h-43.6l-72.7-482.4 74.6-.3z"></path><path fill="#ffbe55" d="M1123.4 526.4h77.2s9.5 57.5-7.2 91.1c-16.8 33.6-25.8 42.6-30.6 62.1-4.8 19.5-121 335-121 335h-37.2l118.8-488.2z"></path><path fill="#fcd2b1" d="M1234.7 364.4s77.6 110.6 68.7 140.5c-8.9 29.9-98-3.2-98-3.2v-18.6l61 7.7-46.3-79.2 14.6-47.2z"></path><path fill="#2a94f4" d="M1102.6 422.2c4.6-23.8 32.2-59.4 32.2-59.4h109.3l-28.8 149.9c-1.9 9.6 21.9 19.6-3.8 19.6h-89.2c-4.4 0-7.9-3.5-7.9-7.9v-54c0-7.2-2-14.4-6.1-20.4-6.8-10.3-7-21.1-5.7-27.8z"></path><path fill="#ffe3ca" d="m1152.4 281.2-9.8 23.2s-5.8 17.2-2.4 27.3c3.9 11.6 21.3 11.5 21.3 11.5l-5.2 28.3h44.3V282l-48.2-.8z"></path><path fill="#0e538c" d="M1154.9 290.7c-8-5.4-9.5-16.4-3.3-23.8 8.7-10.3 23.7-22.7 45-21.2 21 1.5 41.2 14.4 41.7 44.5.3 20.1 5.3 34 19.5 59.2 13.3 23.7-8 50.4-5 72.3s6.6 21.5 7.2 40.5c2.3 74.7-69.7 72.1-106.3 69.5-35.9-2.6-49.2-76.7-24.5-105.2 24.7-28.5 16.4-61.1 18.9-74.5 6-32.5 21.4-38.9 19-55.2-4.5-1.4-8.7-3.7-12.2-6.1z"></path><path fill="#fcd2b1" d="M940.1 248.3c-.2-22.6 18.2-13.7 19.2-9.3.2.9 2.4 1.5 3.3 8.1.9 6.5 5.7 15.4 6.6 13.1 1.8-4.6 4-11.3 5.6-9.8 5 5 2.2 14.4-.3 20.2-1.4 3.3-.9 7.1 1.3 9.9l65.9 82.3h91.8c18.9 3.7 9.6 43.1-13.1 42.2-19.9-.8-71.4-3-93.9-17.1-22.5-14.2-71.3-112.2-71.3-112.2-10-7.6-15.1-25.6-15.1-27.4z"></path></g></svg>